<svg xmlns="http://www.w3.org/2000/svg" xmlns:xlink="http://www.w3.org/1999/xlink" width="248.999" height="151.537" viewBox="0 0 248.999 151.537"><defs><style>.a{fill:#707070;}.b{clip-path:url(#a);}</style><clipPath id="a"><rect class="a" width="248.999" height="151.537"/></clipPath></defs><g class="b"><path class="a" d="M198.571,50.68a51.212,51.212,0,0,0-7.057.488,3.649,3.649,0,0,0,1.01,7.227,43.7,43.7,0,0,1,6.047-.42,43.116,43.116,0,1,1-26,8.71l1.814,9.676a23.049,23.049,0,0,0,6.381,12.1l15.23,15.229a3.647,3.647,0,0,0,5.157-5.157L185.921,83.3a15.774,15.774,0,0,1-4.369-8.285l-10.14-54.074,5.507-3.655a3.651,3.651,0,0,0,1.631-3.039A14.265,14.265,0,0,0,164.3,0H150.624a3.647,3.647,0,0,0,0,7.295H164.3a6.965,6.965,0,0,1,6.717,5.155L165.366,16.2a3.643,3.643,0,0,0-1.568,3.71l4.465,23.815C148.894,50.938,141.227,66,133.8,80.584c-3.045,5.979-5.945,11.674-9.588,16.739a19.148,19.148,0,0,0-11.41-3.762c-.043,0-.086.005-.129.005l-2.8-14.012c12-5.152,18.815-12.69,25.421-20,5.975-6.608,11.621-12.852,21.114-17.837a3.648,3.648,0,0,0-3.391-6.459c-10.643,5.59-16.994,12.611-23.134,19.405-6.054,6.694-11.806,13.052-21.477,17.553l-6.469-32.35,5.877-.735a9.858,9.858,0,0,0-1.224-19.64H88.93a10.959,10.959,0,1,0,0,21.918,11.12,11.12,0,0,0,1.357-.086l4.392-.55,3.1,15.492L86.493,65.816a50.447,50.447,0,1,0,9.653,56.6,19.3,19.3,0,0,0,13.012,9.278v4.752h-.251a3.647,3.647,0,1,0,0,7.295H120.6a3.647,3.647,0,0,0,0-7.295h-4.149v-4.752A19.228,19.228,0,0,0,129.236,102.8c4.425-5.868,7.8-12.492,11.069-18.914C147.22,70.3,153.78,57.433,169.632,51.027l1.462,7.8a50.429,50.429,0,1,0,27.477-8.143M89.383,34.086a3.663,3.663,0,0,1-4.119-3.635,3.669,3.669,0,0,1,3.666-3.665h17.662a2.564,2.564,0,0,1,.319,5.109ZM99.411,64.438,105.522,95a19.354,19.354,0,0,0-10.61,10.743L61.761,99.523a11.284,11.284,0,0,0-.7-2.635L85.611,76.115A43.282,43.282,0,0,1,91.472,87.8a3.648,3.648,0,0,0,6.941-2.247,50.557,50.557,0,0,0-7.207-14.167ZM50.429,105.257a4.149,4.149,0,1,1,4.149-4.149,4.155,4.155,0,0,1-4.149,4.149m0,38.985a43.134,43.134,0,1,1,30.481-73.7L56.35,91.318a11.443,11.443,0,1,0-9.569,20.636V116.7a3.647,3.647,0,0,0,7.295,0v-4.749a11.5,11.5,0,0,0,6.337-5.263l31.6,5.924a43.139,43.139,0,0,1-41.581,31.627m66.024-20.064V112.8a3.647,3.647,0,1,0-7.295,0v11.373a11.945,11.945,0,1,1,7.295,0"/></g></svg>