<svg xmlns="http://www.w3.org/2000/svg" xmlns:xlink="http://www.w3.org/1999/xlink" width="395" height="395" viewBox="0 0 395 395"><defs><style>.a,.c{fill:#fff;}.b{fill:#ec8d3b;}.c{font-size:30px;font-family:BrandonGrotesque-Bold, Brandon Grotesque;font-weight:700;}.d{fill:#707070;font-size:50px;font-family:BrandonGrotesque-Regular, Brandon Grotesque;}.e{font-family:BrandonGrotesque-Black, Brandon Grotesque;font-weight:800;}.f{filter:url(#a);}</style><filter id="a" x="0" y="0" width="395" height="395" filterUnits="userSpaceOnUse"><feOffset dx="3" dy="3" input="SourceAlpha"/><feGaussianBlur stdDeviation="7.5" result="b"/><feFlood flood-opacity="0.302"/><feComposite operator="in" in2="b"/><feComposite in="SourceGraphic"/></filter></defs><g transform="translate(-1250.5 -1307.5)"><g class="f" transform="matrix(1, 0, 0, 1, 1250.5, 1307.5)"><rect class="a" width="350" height="350" rx="44" transform="translate(19.5 19.5)"/></g><path class="b" d="M44,0H306a44,44,0,0,1,44,44V72a0,0,0,0,1,0,0H0a0,0,0,0,1,0,0V44A44,44,0,0,1,44,0Z" transform="translate(1270 1327)"/><text class="c" transform="translate(1314 1337)"><tspan x="86.765" y="32">Termin</tspan></text><text class="d" transform="translate(1311 1432)"><tspan x="43.025" y="53">Od </tspan><tspan class="e" y="53">01.04</tspan><tspan x="47.425" y="125">do </tspan><tspan class="e" y="125">04.05 </tspan><tspan class="e" x="91.475" y="197">2021</tspan></text></g></svg>