<svg xmlns="http://www.w3.org/2000/svg" xmlns:xlink="http://www.w3.org/1999/xlink" width="395" height="395" viewBox="0 0 395 395"><defs><style>.a,.c{fill:#fff;}.b{fill:#ec8d3b;}.c{font-size:30px;font-family:BrandonGrotesque-Bold, Brandon Grotesque;font-weight:700;}.d{fill:#707070;font-size:80px;font-family:BrandonGrotesque-Black, Brandon Grotesque;font-weight:800;}.e{font-size:40px;}.f{filter:url(#a);}</style><filter id="a" x="0" y="0" width="395" height="395" filterUnits="userSpaceOnUse"><feOffset dx="3" dy="3" input="SourceAlpha"/><feGaussianBlur stdDeviation="7.5" result="b"/><feFlood flood-opacity="0.302"/><feComposite operator="in" in2="b"/><feComposite in="SourceGraphic"/></filter></defs><g transform="translate(-765.5 -1307.5)"><g class="f" transform="matrix(1, 0, 0, 1, 765.5, 1307.5)"><rect class="a" width="350" height="350" rx="44" transform="translate(19.5 19.5)"/></g><path class="b" d="M44,0H306a44,44,0,0,1,44,44V72a0,0,0,0,1,0,0H0a0,0,0,0,1,0,0V44A44,44,0,0,1,44,0Z" transform="translate(785 1327)"/><text class="c" transform="translate(829 1337)"><tspan x="74.555" y="32">Trudność</tspan></text><text class="d" transform="translate(822 1449)"><tspan x="3.44" y="84">60-80</tspan><tspan class="e" y="84" xml:space="preserve"> km</tspan></text></g></svg>