<svg xmlns="http://www.w3.org/2000/svg" xmlns:xlink="http://www.w3.org/1999/xlink" width="97" height="198.464" viewBox="0 0 97 198.464"><defs><style>.a{fill:#ec8d3b;}.b{clip-path:url(#a);}</style><clipPath id="a"><rect class="a" width="97" height="198.464"/></clipPath></defs><g transform="translate(0 0)"><g class="b" transform="translate(0 0)"><path class="a" d="M57.453,86.923c0,13.374-10.22,24.212-22.83,24.212S11.8,100.3,11.8,86.923,22.017,62.711,34.623,62.711,57.453,73.549,57.453,86.923Z" transform="translate(13.877 84.328)"/><path class="a" d="M20.113,18.842h8.493a1.06,1.06,0,0,0,1.059-1.061V13.535a1.06,1.06,0,0,0-1.059-1.061H20.113a1.062,1.062,0,0,0-1.061,1.061v4.246a1.062,1.062,0,0,0,1.061,1.061M21.174,14.6h6.368V16.72H21.174Z" transform="translate(24.141 15.806)"/><path class="a" d="M61.1,48.842a2.123,2.123,0,0,0-2.12-2.122H56.857V26.409a9.872,9.872,0,0,0,1.061-4.457V14.878a1.062,1.062,0,0,0-1.061-1.061H52.613v-.723a2.464,2.464,0,0,0-2.46-2.462H46.582a2.464,2.464,0,0,0-2.46,2.462v.723H43.059a7.429,7.429,0,0,0-14.859,0H27.14v-.723a2.464,2.464,0,0,0-2.46-2.462H21.109a2.464,2.464,0,0,0-2.46,2.462v.723H14.4a1.062,1.062,0,0,0-1.061,1.061v7.073A9.872,9.872,0,0,0,14.4,26.409V46.72H12.279a2.125,2.125,0,0,0-2.122,2.122v5.72a8.052,8.052,0,0,0,2.122,5.452v6.139a3.919,3.919,0,0,0,3.915,3.915H55.064a3.92,3.92,0,0,0,3.918-3.915V60.012a8.034,8.034,0,0,0,2.12-5.45Zm-2.12,0v5.72a5.942,5.942,0,0,1-1.746,4.208l-.009.009c-.029.027-.059.054-.086.082-.052.05-.1.1-.159.147-.02.018-.043.036-.063.057-.05.043-.1.084-.152.125-.027.023-.057.048-.086.068-.045.036-.088.07-.134.1s-.077.054-.113.082-.077.052-.116.077-.093.061-.141.091c-.032.02-.063.041-.1.059-.054.034-.111.063-.165.1l-.079.043-.184.1-.07.032c-.063.032-.131.061-.195.091l-.066.029-.2.079-.066.025q-.1.037-.2.068l-.073.025c-.068.02-.136.039-.2.057l-.082.023c-.066.016-.131.032-.2.045l-.088.02-.193.034-.1.016c-.063.011-.127.018-.19.025-.034,0-.07.009-.1.011-.068.007-.134.011-.2.016-.029,0-.061.007-.093.007-.1.007-.2.009-.3.009h-.415V48.842h6.371ZM27.14,60.517V48.842H44.12V60.517ZM21.409,40.351h4.668v2.122H19.711V40.351Zm25.473,0H51.55v2.122H45.184V40.351Zm3.607,6.368h0V57.332H46.242V44.6h4.246Zm-6.368-8.49H43.059V44.6H44.12V46.72H27.14V44.6H28.2V38.229H27.14V31.861H44.12ZM20.772,44.6h4.246V57.332H20.772V44.6Zm0,16.543V59.454h4.246v1.684l-2.124,2.124Zm25.471,0V59.454h4.246v1.687l-2.122,2.122ZM52.611,46.72V44.6h1.063V38.229H52.613v-7.5a9.943,9.943,0,0,0,1.238-.775l.029-.02q.116-.085.231-.177c.02-.016.045-.034.066-.052l.184-.15c.032-.027.063-.052.1-.082.05-.041.1-.084.145-.127l.12-.107.014-.014v17.5ZM55.8,15.939v6.012a7.781,7.781,0,0,1-1.991,5.2l-.016.016c-.043.05-.086.1-.131.143l-.048.05c-.143.15-.292.292-.447.428l-.029.025c-.165.145-.34.286-.521.417V15.939ZM46.58,12.756h3.571a.339.339,0,0,1,.338.338V38.229H46.242V13.094a.339.339,0,0,1,.338-.338M35.63,8.51a5.313,5.313,0,0,1,5.307,5.307H30.323A5.313,5.313,0,0,1,35.63,8.51M28.2,15.939H44.12v13.8H27.14v-13.8Zm-7.429-2.845a.338.338,0,0,1,.336-.338H24.68a.339.339,0,0,1,.338.338V38.229H20.772V13.094Zm-5.307,2.845h3.183v12.29c-.177-.129-.347-.268-.51-.41l-.057-.048c-.145-.129-.283-.263-.419-.4A.9.9,0,0,1,17.6,27.3c-.043-.043-.084-.086-.125-.129l-.036-.043c-.086-.1-.17-.195-.252-.3l-.014-.018c-.045-.057-.091-.113-.134-.172l0,0a7.778,7.778,0,0,1-1.569-4.684Zm1.061,13.285.023.02c.027.025.057.052.086.077.059.054.118.107.177.159l.07.057c.068.059.141.118.213.175l.039.032a9.959,9.959,0,0,0,1.514.984v7.5H17.586V44.6h1.061V46.72H16.525ZM12.277,48.842h6.371V60.517h-.41l-.043,0c-.086,0-.17,0-.256-.007L17.8,60.5l-.152-.011c-.052,0-.107-.014-.159-.02s-.088-.009-.131-.016l-.163-.027c-.041-.009-.084-.016-.125-.023s-.107-.023-.161-.036l-.122-.027-.159-.043c-.039-.011-.079-.023-.12-.036s-.1-.032-.156-.05-.077-.025-.116-.041-.1-.039-.156-.059-.075-.027-.111-.043c-.054-.023-.107-.045-.161-.07-.034-.014-.066-.029-.1-.043-.057-.029-.113-.057-.17-.084-.027-.016-.054-.029-.082-.043-.063-.034-.122-.068-.184-.1l-.061-.036c-.066-.039-.134-.079-.2-.122l-.036-.025c-.075-.048-.147-.1-.22-.15l-.009-.007a6.434,6.434,0,0,1-.664-.56L14,58.744a5.931,5.931,0,0,1-1.723-4.183Zm44.58,17.312a1.8,1.8,0,0,1-1.793,1.793H16.194A1.8,1.8,0,0,1,14.4,66.153V61.671a7.938,7.938,0,0,0,2.19.8l.032.007q.19.037.381.068h0c.122.018.243.034.365.048l.054,0c.12.014.24.02.363.027l.068,0c.125,0,.249.009.374.009h1.036l3.623,3.625,3.625-3.625H44.744l3.623,3.625,3.625-3.625h1.034c.125,0,.249,0,.374-.009l.066,0c.125-.007.245-.014.367-.027l.045,0a7.672,7.672,0,0,0,.759-.118l.023,0a7.909,7.909,0,0,0,2.2-.8Z" transform="translate(12.87 8.094)"/><path class="a" d="M48.5,132.07a5.753,5.753,0,0,1-4.734-2.829L9.76,77.714A78.709,78.709,0,0,1,4.119,67.17C3.7,66.156,0,57.011,0,48.5a48.5,48.5,0,0,1,97,0c0,8.533-3.7,17.661-4.119,18.672a78.309,78.309,0,0,1-5.636,10.542L53.234,129.243A5.754,5.754,0,0,1,48.5,132.07m0-128.433A44.913,44.913,0,0,0,3.636,48.5c0,7.892,3.679,16.867,3.836,17.246A74.768,74.768,0,0,0,12.8,75.712l34.011,51.529c.329.5.83,1.258,1.694,1.258s1.367-.757,1.7-1.258L84.207,75.712a74.8,74.8,0,0,0,5.321-9.955c.034-.082,3.836-9.175,3.836-17.257A44.913,44.913,0,0,0,48.5,3.636" transform="translate(0 0)"/></g></g></svg>