<svg xmlns="http://www.w3.org/2000/svg" xmlns:xlink="http://www.w3.org/1999/xlink" width="93.877" height="98.351" viewBox="0 0 93.877 98.351"><defs><style>.a{fill:none;}.b{clip-path:url(#a);}.c{fill:#fff;}</style><clipPath id="a"><rect class="a" width="93.877" height="98.351"/></clipPath></defs><g class="b"><path class="c" d="M42.7,183.282c-.034-7.055,1.783-13.794,3.4-20.566,1.14-4.767,2.4-9.5,2.357-14.485C48.4,141.323,43.2,135.107,36.34,134.3c-5.564-.648-11.171-.915-16.752-1.435a39.836,39.836,0,0,1-15.405-4.361C2.413,127.555.724,126.377.1,124.294a1.955,1.955,0,0,1,.167-1.648,2.27,2.27,0,0,1,1.789-.335,8.637,8.637,0,0,1,2.269,1.083c6.222,3.692,13.048,5.138,20.175,5.585,5.826.363,11.677.708,17.184,2.938,6.47,2.619,9.545,7.716,10.482,14.411.588,4.193-.608,8.155-1.339,12.182-1.2,6.616-2.655,13.2-3.6,19.849a31.07,31.07,0,0,0,5.153,22.427,31.93,31.93,0,0,1,2.24,4.194,3.892,3.892,0,0,1,.341,1.758c-.046,1.276-1,1.87-1.973,1.091a17.027,17.027,0,0,1-3.453-3.587c-3.316-4.877-5.851-10.119-6.564-16.067-.193-1.618-.187-3.263-.273-4.893" transform="translate(0 -109.828)"/><path class="c" d="M359.79,0c8.457.054,11.2,7.108,8.961,13.648a1.619,1.619,0,0,1-.492.829,15.112,15.112,0,0,1-1.763.833,5.277,5.277,0,0,1-.758-1.778c-.034-1.535.248-3.079.21-4.614-.08-3.015-2.932-5.341-6.2-5.184a5.2,5.2,0,0,0-5.067,5.7c.153,2.275,1.578,3.773,3.312,4.942a21.555,21.555,0,0,0,19.367,2.857,71.04,71.04,0,0,0,9.488-4.09c4.5-2.2,8.923-4.562,13.99-5.127a19.506,19.506,0,0,1,4.586.165A3.569,3.569,0,0,1,407.5,9.222a2.789,2.789,0,0,1,.7,2.14c-.1.4-1.274.754-1.955.732-1.2-.037-2.377-.5-3.578-.573-3.528-.2-6.688,1.08-9.751,2.647-3.948,2.017-7.769,4.338-11.853,6.022-9.822,4.046-19.135,2.734-27.64-3.609A9.081,9.081,0,0,1,354.74,1.411,17.379,17.379,0,0,1,359.79,0" transform="translate(-314.351 0.001)"/><path class="c" d="M30.1,333.554a332.322,332.322,0,0,1,.994-39.013,27.054,27.054,0,0,1,8.753,5.452,28.584,28.584,0,0,1,4.755,5.8c2.819,4.784,2.561,9.7-.187,14.5-2.6,4.548-9.254,10.764-14.315,13.265m4.065-7.6a24.687,24.687,0,0,0,6.126-8.854c2.08-5.781-.676-11.974-5.6-15.457-.173,8.083-.346,16.042-.522,24.311" transform="translate(-26.841 -264.598)"/><path class="c" d="M230.2,354.3c-.377-2.287-.64-4.6-1.155-6.855-.864-3.771-1.9-7.5-2.842-11.251a1.982,1.982,0,0,0-2-1.728,20.1,20.1,0,0,1-2.917-.371,1.818,1.818,0,0,0-2.3,1.441q-2.1,6.3-4.186,12.605c-.233.7-.44,1.406-.683,2.186-2.982-5.248,1.973-27.079,8-35.32a27.543,27.543,0,0,1,6.674,9.846,36.9,36.9,0,0,1,2.91,15.724c-.176,4.582-.625,9.153-.953,13.731Zm-9.995-23.239c2.074.377,3.8.689,5.749,1.046-.806-2.766-1.38-5.23-3.252-7.538l-2.5,6.492" transform="translate(-191.549 -282.982)"/><path class="c" d="M541.242,329.462h10.885v3.306c-1.726,0-3.344-.049-4.957.014-1.87.073-1.867.115-1.909,2.137,1.74.224,3.506.342,5.225.7,4.441.905,8.217,2.779,9.425,7.632a13.034,13.034,0,0,1-1.562,9.61c-3.607,6.527-9.289,10.562-16.284,13.065-.383-.508-.738-.982-1.109-1.47,1.51-.948,2.984-1.759,4.332-2.739,4.056-2.963,6.966-6.7,7.854-11.8.985-5.672-2.521-9.98-8.328-10.137-1.3-.038-2.6,0-4.058,0,.162-3.445.323-6.823.487-10.3" transform="translate(-485.782 -295.969)"/></g></svg>