<svg xmlns="http://www.w3.org/2000/svg" xmlns:xlink="http://www.w3.org/1999/xlink" width="128.166" height="45.077" viewBox="0 0 128.166 45.077"><defs><style>.a{fill:#fff;}.b{clip-path:url(#a);}</style><clipPath id="a"><rect class="a" width="128.166" height="45.077"/></clipPath></defs><g class="b"><path class="a" d="M27.636,1.129q-.5-1.035-1.1-1.035-.816,0-2.462.11t-2.494.11q-.878,0-2.651-.157T16.312,0q-.5,0-.878,1.192-.659,2.07-8.344,22.868Q0,43.289,0,44.1q0,.91,4.8.91a52.755,52.755,0,0,0,7.152-.251q.847-.219,1.443-2.823a8.63,8.63,0,0,1,1.192-3.357q.345-.282,5.678-.282a69.255,69.255,0,0,1,8.407.22q.6.314,1.663,4.831a1.69,1.69,0,0,0,1.349,1.412,39.642,39.642,0,0,0,5.772.251,36.023,36.023,0,0,0,5.835-.251q.784-.219.784-.784,0-.847-7.466-20.264Q29.173,4.423,27.636,1.129M25.283,27.322q-.22.5-2.29.5-2.228,0-3.2-.063-1.882-.062-1.882-.627a32.475,32.475,0,0,1,1.694-5.741q1.568-4.611,2.227-5.991a44.4,44.4,0,0,1,2.07,5.772,30.581,30.581,0,0,1,1.443,5.709,1.225,1.225,0,0,1-.063.439"/><path class="a" d="M394.96,27.472q0-.376,1.035-.972,5.05-2.948,8.94-14.806a23.667,23.667,0,0,0,1.318-5.05q0-.721-.753-.722-.816,0-2.494.063t-2.525.063q-.816,0-2.462-.094t-2.462-.094a1.382,1.382,0,0,0-1.412.784q-2.29,5.929-3.294,8.971a16.348,16.348,0,0,1-3.106,5.489,7.915,7.915,0,0,1-5.8,2.039q-1.475,0-1.474-2.7,0-2.321.235-7.011t.235-7.011q0-.565-.533-.565-.973,0-2.949.094t-2.98.094q-.973,0-2.933-.094t-2.933-.094q-.659,0-.659.69,0,3.639.314,10.932t.314,10.932q0,3.419-.329,10.258T367.92,48.9q0,.784.91.972a36.073,36.073,0,0,0,5.4.251,45.728,45.728,0,0,0,5.9-.251.956.956,0,0,0,.847-1.1q0-2.383-.188-7.136t-.188-7.1q0-.533,3.388-1.757.721.69,4.454,7.466,2.258,4.2,4.548,8.407a2.736,2.736,0,0,0,.674.894,3.555,3.555,0,0,0,1.114.329,36.225,36.225,0,0,0,5.646.314,22.119,22.119,0,0,0,4.956-.314,1.675,1.675,0,0,0,1.161-1.757q0-1.788-5.788-11.23t-5.788-9.411" transform="translate(-320.647 -5.106)"/><path class="a" d="M717.472,9.48l-3.4-2.752-4.626-3.719a1.722,1.722,0,0,0-.722-.078q-.032,0-4.109.314-7.592.6-10.414.6a126.6,126.6,0,0,1-15.026-.659c-.251-.021-.4-.031-.439-.031q-.534,0-.753,2.353-.126,1.475-.219,2.949-.063.471-.565,2.666c-.293,1.339-.439,6.724-.439,7q0,.314.5.314,3.733,0,10.007-.627c.167,5.646.251,4.705.251,6.337q0,3.7-.314,11.1t-.314,11.1a.921.921,0,0,0,.878.972,43.237,43.237,0,0,0,5.678.251,45.132,45.132,0,0,0,5.521-.251,3.755,3.755,0,0,0,.878-.157q.282-.157.282-.753,0-3.7-.3-11.136t-.3-11.136c0-2.091.063-1.2.188-6.493,5.5.314,8.474.455,9.269.455.46,0,.652-.176,1.162-.638l3.91-3.148,3.408-2.744a1.341,1.341,0,0,0,0-2.087" transform="translate(-589.804 -2.554)"/></g></svg>