<svg xmlns="http://www.w3.org/2000/svg" width="613.378" height="4403.39" viewBox="0 0 613.378 4403.39"><defs><style>.a{fill:none;stroke:#7b6a58;stroke-linecap:round;stroke-linejoin:round;stroke-width:3px;stroke-dasharray:4 7;opacity:0.31;}</style></defs><path class="a" d="M425.179,4401.074c133.252-78.3,22.16-503.71,0-597.021-11.144-46.913-8.878-264.481,7.011-310.427,76.84-222.194,7.46-382.557-45.589-609.574-15.776-67.533,25.463-180.98,51.353-203.359,118.851-102.731,119.4-263.007,112.482-405.919-2.884-59.629-6.183-120.839-34.539-175.592-30.849-59.572-91.614-120.128-64.309-180.9,19.212-42.76,75.05-64.477,111.156-98.729,45.579-43.242,57.436-106.35,43.594-162.849s-50.495-107.326-92.494-153.038c-23.251-25.306-48.634-49.682-79.62-68.29-99.331-59.656-256.854-63.6-304.206-157.965-38.293-76.312,50.473-173.914,148.518-163.3,0,0,403.1,12.717,280.726-190.017S15.8,771.313,1.765,618.528,538.657,471.618,443.912,1.5" transform="translate(-0.003 0.263)"/></svg>